<svg width="52" height="30" viewBox="0 0 52 30" fill="none" xmlns="http://www.w3.org/2000/svg">
<path d="M10.9122 26.803C9.92189 27.4123 8.72125 27.7731 7.43561 27.7731C7.40374 27.7731 7.36974 27.7731 7.33786 27.7731H7.34211C3.53619 27.7562 0.457031 24.6717 0.457031 20.8654C0.457031 19.0907 1.12641 17.4731 2.22718 16.2504L2.2208 16.2567C3.31944 15.034 4.84733 14.2145 6.56435 14.0384L6.5941 14.0362C6.53673 13.6966 6.50485 13.306 6.50485 12.9069C6.50485 12.8814 6.50485 12.8581 6.50485 12.8326V12.8368C6.50485 12.8241 6.50485 12.8071 6.50485 12.7901C6.50485 10.4656 7.45474 8.36187 8.98901 6.84616C10.5466 5.33046 12.678 4.39428 15.0283 4.39428C15.073 4.39428 15.1261 4.39216 15.1771 4.39216C16.637 4.39216 18.0034 4.7955 19.1721 5.49391L19.136 5.47481C20.1411 3.8572 21.4693 2.53043 23.0397 1.55817L23.0907 1.52845C24.6781 0.568921 26.597 0 28.6476 0C31.3336 0 33.7923 0.974384 35.6857 2.58987L35.6708 2.57713C37.5897 4.17775 38.9349 6.40674 39.3917 8.94353L39.4024 9.00934H38.7967C38.7457 9.00722 38.6883 9.00722 38.6288 9.00722C37.7533 9.00722 36.9118 9.15794 36.1319 9.43603L36.1829 9.41905C34.2811 7.379 31.578 6.10742 28.5775 6.10742C28.5052 6.10742 28.4351 6.10742 28.3629 6.10954H28.3735C28.3437 6.10954 28.3076 6.10954 28.2736 6.10954C26.8668 6.10954 25.5217 6.3664 24.2807 6.83555L24.3593 6.81008C21.9644 7.71865 20.0136 9.33838 18.7131 11.4103L18.6855 11.457C18.1202 12.3656 17.6931 13.4227 17.4657 14.5542L17.4551 14.6158C16.6285 14.7856 15.9017 15.0149 15.2111 15.3099L15.2855 15.2823C14.1911 15.7876 13.2752 16.5115 12.559 17.4009L12.5484 17.4158C11.8599 18.1928 11.3159 19.1141 10.9717 20.1288L10.9547 20.184C10.6125 21.1626 10.4128 22.2898 10.4106 23.4616C10.4106 23.5105 10.4085 23.572 10.4085 23.6294C10.4085 24.8415 10.6444 26.0006 11.0715 27.062L11.0503 27.0004L10.9185 26.8072L10.9122 26.803ZM46.7124 18.8487C50.0615 19.678 51.6375 21.6459 51.4406 24.7523C51.2437 27.8588 49.436 29.608 46.0176 30H18.9447C14.4737 29.4113 12.2778 27.1023 12.3572 23.0732C12.4294 19.0292 14.7032 16.8023 19.1785 16.4181C19.3698 12.5226 22.1047 9.31503 25.7491 8.40645L25.8086 8.39372C26.5587 8.1602 27.4215 8.02646 28.314 8.02646C31.3506 8.02646 34.026 9.57614 35.5879 11.9282L35.6071 11.9601C36.4125 11.3232 37.441 10.939 38.5609 10.939C38.7564 10.939 38.9476 10.9496 39.1367 10.973L39.1134 10.9708C40.4372 11.0175 41.6698 11.353 42.7663 11.9198L42.7174 11.8964C43.9754 12.5417 44.9869 13.5119 45.6648 14.6986L45.6839 14.7325C46.3257 15.8873 46.7039 17.2651 46.7039 18.732V18.8126V18.8084L46.7124 18.8487Z" fill="white"/>
</svg>
