<svg width="78" height="63" viewBox="0 0 78 63" fill="none" xmlns="http://www.w3.org/2000/svg">
<path d="M70.1434 0.230469H8.13398C6.07825 0.230469 4.1067 1.04711 2.65308 2.50073C1.19945 3.95436 0.382813 5.9259 0.382812 7.98164V54.4887C0.382813 56.5444 1.19945 58.516 2.65308 59.9696C4.1067 61.4232 6.07825 62.2398 8.13398 62.2398H70.1434C72.1991 62.2398 74.1706 61.4232 75.6243 59.9696C77.0779 58.516 77.8945 56.5444 77.8945 54.4887V7.98164C77.8945 5.9259 77.0779 3.95436 75.6243 2.50073C74.1706 1.04711 72.1991 0.230469 70.1434 0.230469ZM23.6363 50.6131H8.13398V42.8619H23.6363V50.6131ZM70.1434 31.2352H8.13398V15.7328H70.1434V31.2352Z" fill="#E0E0E0"/>
</svg>
