<svg width="41" height="32" viewBox="0 0 41 32" fill="none" xmlns="http://www.w3.org/2000/svg">
<path d="M12.4717 0.0507812C8.7967 0.0507812 5.73127 2.66045 5.02745 6.1277H2.34345C1.5044 6.1277 0.824219 6.80789 0.824219 7.64693C0.824219 8.48598 1.5044 9.16617 2.34345 9.16617H5.02745C5.73127 12.6334 8.7967 15.2431 12.4717 15.2431C16.1466 15.2431 19.212 12.6334 19.9159 9.16617H38.805C39.644 9.16617 40.3242 8.48598 40.3242 7.64693C40.3242 6.80789 39.644 6.1277 38.805 6.1277H19.9159C19.212 2.66045 16.1466 0.0507812 12.4717 0.0507812Z" fill="#505050"/>
<path d="M28.6768 16.2559C25.0018 16.2559 21.9364 18.8656 21.2326 22.3328H2.34345C1.5044 22.3328 0.824219 23.013 0.824219 23.8521C0.824219 24.6911 1.5044 25.3713 2.34345 25.3713H21.2326C21.9364 28.8385 25.0018 31.4482 28.6768 31.4482C32.3517 31.4482 35.4172 28.8385 36.121 25.3713H38.805C39.644 25.3713 40.3242 24.6911 40.3242 23.8521C40.3242 23.013 39.644 22.3328 38.805 22.3328H36.121C35.4172 18.8656 32.3517 16.2559 28.6768 16.2559Z" fill="#505050"/>
</svg>
